<?xml version="1.0" standalone="no"?>
<!DOCTYPE svg PUBLIC "-//W3C//DTD SVG 20010904//EN"
 "http://www.w3.org/TR/2001/REC-SVG-20010904/DTD/svg10.dtd">
<svg version="1.0" xmlns="http://www.w3.org/2000/svg"
 width="500.000000pt" height="500.000000pt" viewBox="0 0 500.000000 500.000000"
 preserveAspectRatio="xMidYMid meet">
<metadata>
Created by potrace 1.14, written by Peter Selinger 2001-2017
</metadata>
<g transform="translate(0.000000,500.000000) scale(0.100000,-0.100000)"
fill="#000000" stroke="none">
<path d="M160 2499 l0 -1819 220 0 220 0 0 710 0 710 446 -2 445 -3 33 -60
c18 -33 49 -89 68 -125 20 -36 84 -155 143 -265 59 -110 122 -227 140 -260 90
-166 167 -309 210 -390 27 -49 68 -126 92 -170 24 -44 51 -95 60 -112 l17 -33
253 0 c139 0 253 3 253 8 0 4 -20 42 -45 86 -25 43 -45 80 -45 82 0 3 -20 39
-44 82 -24 42 -59 106 -78 142 -19 36 -71 130 -115 210 -44 80 -95 172 -113
205 -18 33 -81 148 -140 255 -58 107 -126 231 -150 275 -23 44 -52 95 -62 113
-11 18 -18 36 -15 39 3 3 39 20 79 37 281 123 483 365 554 665 30 131 38 202
37 342 -2 242 -74 490 -189 652 -19 26 -34 48 -34 50 0 1 194 2 430 2 283 0
430 -3 431 -10 1 -5 2 -734 3 -1620 l1 -1610 221 -3 220 -2 0 1620 c-1 891 1
1621 4 1621 3 1 259 2 570 3 l565 1 3 196 2 196 -2345 0 -2345 1 0 -1819z
m1390 1417 c36 -5 72 -10 80 -11 276 -57 445 -194 518 -422 29 -89 37 -152 37
-293 -1 -230 -59 -387 -185 -503 -105 -95 -209 -141 -390 -172 -94 -15 -135
-17 -618 -18 l-392 -2 0 711 c0 391 2 713 4 715 8 8 878 3 946 -5z"/>
</g>
</svg>
